# xmcd CD database file
#
# Track frame offsets:
#	150
#	19880
#	29508
#	41943
#	57283
#	74777
#	92625
#	106218
#	121355
#	150130
#
# Disc length: 2169 seconds
#
# Revision: 0
# Processed by: cddbd v1.5.1PL0 Copyright (c) Steve Scherf et al.
# Submitted via: CDex 1.60beta1
#
DISCID=8408770a
DTITLE=Various Artist - Isn't It Romantic, Vol. 3
DYEAR=1900
DGENRE=Jazz
TTITLE0=Louis Armstrong Orchestra/I Can't Give You Anything But Love
TTITLE1=Dinah Washington/Let's Fall In Love
TTITLE2=Johnny Hartman/The Very Thought Of You
TTITLE3=Clifford Brown/Stardust
TTITLE4=Carmen McRae/My Romance
TTITLE5=Johnny Hodges/Day Dream
TTITLE6=Elta James/At Last
TTITLE7=Sarah Vaughan/Corcovado (Quiet Nights Of Quiet Stars)
TTITLE8=Billie Holiday/Body And Soul
TTITLE9=Judy Garland/Over The Rainbow
EXTD=
EXTT0=
EXTT1=
EXTT2=
EXTT3=
EXTT4=
EXTT5=
EXTT6=
EXTT7=
EXTT8=
EXTT9=
PLAYORDER=
